# xmcd
#
# Track frame offsets:
#	150
#	13947
#	31332
#	42920
#	55500
#	69945
#	82627
#	93070
#	107445
#	121890
#	132602
#	143447
#	159900
#	175707
#
# Disc length: 2520 seconds
#
# Revision: 0
# Processed by: cddbd v1.5PL3 Copyright (c) Steve Scherf et al.
# Submitted via: audiograbber 1.82.02
#
DISCID=9b09d60e
DTITLE=Percy Sledge - The Natual Collection
DYEAR=1900
DGENRE=
TTITLE0=My Special Prayer
TTITLE1=Try ALittle Tenderness
TTITLE2=(Sitting On) The Dock Of The Bay
TTITLE3=Cover Me
TTITLE4=I'LL Be Your Everything
TTITLE5=Behind Closed Doors
TTITLE6=Blue Water
TTITLE7=Hard To Be Friends
TTITLE8=Love Away People
TTITLE9=Thief In The Night
TTITLE10=You're Pouring Water On A Drowing Man
TTITLE11=Make It Good And Make It Last
TTITLE12=Bring It On Home To Me
TTITLE13=I've Been Loving You Too lLoog
EXTD=CD_2
EXTT0=
EXTT1=
EXTT2=
EXTT3=
EXTT4=
EXTT5=
EXTT6=
EXTT7=
EXTT8=
EXTT9=
EXTT10=
EXTT11=
EXTT12=
EXTT13=
PLAYORDER=
